<?xml version="1.0" encoding="utf-8" standalone="yes"?>
<!DOCTYPE svg PUBLIC "-//W3C//DTD SVG 1.1//EN" "http://www.w3.org/Graphics/SVG/1.1/DTD/svg11.dtd">
<svg style="fill:none;stroke:none;fill-rule:evenodd;clip-rule:evenodd;stroke-linecap:round;stroke-linejoin:round;stroke-miterlimit:1.5;" version="1.1" xmlns="http://www.w3.org/2000/svg" xmlns:xlink="http://www.w3.org/1999/xlink" width="613" height="340" viewBox="0 0 613 340"><style class="text-font-style fontImports" data-font-family="Roboto">@import url(https://fonts.googleapis.com/css2?family=Roboto:wght@400;700&amp;amp;display=block);</style><g id="items" style="isolation: isolate"><g id="blend" style="mix-blend-mode: normal"><g id="g-root-cp_start_g-start_qwjcc9m9tx59-fill" data-item-order="-174612" transform="translate(15, 180)"></g><g id="g-root-cp_start_g-start_qwjcc9m9tx59-stroke" data-item-order="-174612" transform="translate(15, 180)"></g><g id="g-root-cp_-1_line-bottom_m7cpx5m9v9c6-fill" data-item-order="-174588" transform="translate(26, 180)"></g><g id="g-root-cp_-1_line-bottom_m7cpx5m9v9c6-stroke" data-item-order="-174588" transform="translate(26, 180)"><g id="cp_-1_line-bottom_m7cpx5m9v9c6-stroke" fill="none" stroke-linecap="round" stroke-linejoin="round" stroke-miterlimit="4" stroke="#f4f4f4" stroke-width="2" stroke-opacity="1"><g><path d="M 21 10C 14.9249 10 10 14.9249 10 21"></path></g></g></g><g id="g-root-cp_-1_line-bottom_1_dbppo9m9va4v-fill" data-item-order="-174584" transform="translate(26, 191)"></g><g id="g-root-cp_-1_line-bottom_1_dbppo9m9va4v-stroke" data-item-order="-174584" transform="translate(26, 191)"><g id="cp_-1_line-bottom_1_dbppo9m9va4v-stroke" fill="none" stroke-linecap="round" stroke-linejoin="round" stroke-miterlimit="4" stroke="#f4f4f4" stroke-width="2" stroke-opacity="1"><g><path d="M 10 10L 10 13"></path></g></g></g><g id="g-root-cp_-1_line-bottom_2_8vw7jtm9vax4-fill" data-item-order="-174580" transform="translate(15, 194)"></g><g id="g-root-cp_-1_line-bottom_2_8vw7jtm9vax4-stroke" data-item-order="-174580" transform="translate(15, 194)"><g id="cp_-1_line-bottom_2_8vw7jtm9vax4-stroke" fill="none" stroke-linecap="round" stroke-linejoin="round" stroke-miterlimit="4" stroke="#f4f4f4" stroke-width="2" stroke-opacity="1"><g><path d="M 21 10C 21 16.0751 16.0751 21 10 21C 16.0751 21 21 25.9249 21 32"></path></g></g></g><g id="g-root-cp_-1_line-bottom_3_4g2pfdm9vbpd-fill" data-item-order="-174576" transform="translate(26, 216)"></g><g id="g-root-cp_-1_line-bottom_3_4g2pfdm9vbpd-stroke" data-item-order="-174576" transform="translate(26, 216)"><g id="cp_-1_line-bottom_3_4g2pfdm9vbpd-stroke" fill="none" stroke-linecap="round" stroke-linejoin="round" stroke-miterlimit="4" stroke="#f4f4f4" stroke-width="2" stroke-opacity="1"><g><path d="M 10 10L 10 13"></path></g></g></g><g id="g-root-cp_-1_line-bottom_4_1um688pm9v956-fill" data-item-order="-174572" transform="translate(26, 219)"></g><g id="g-root-cp_-1_line-bottom_4_1um688pm9v956-stroke" data-item-order="-174572" transform="translate(26, 219)"><g id="cp_-1_line-bottom_4_1um688pm9v956-stroke" fill="none" stroke-linecap="round" stroke-linejoin="round" stroke-miterlimit="4" stroke="#f4f4f4" stroke-width="2" stroke-opacity="1"><g><path d="M 21 21C 14.9249 21 10 16.0751 10 10"></path></g></g></g><g id="g-root-cp_-1_line-bottom_5_1um688pm9v957-fill" data-item-order="-174566" transform="translate(165, 180)"></g><g id="g-root-cp_-1_line-bottom_5_1um688pm9v957-stroke" data-item-order="-174566" transform="translate(165, 180)"><g id="cp_-1_line-bottom_5_1um688pm9v957-stroke" fill="none" stroke-linecap="round" stroke-linejoin="round" stroke-miterlimit="4" stroke="#f4f4f4" stroke-width="2" stroke-opacity="1"><g><path d="M 10 10C 16.0751 10 21 14.9249 21 21"></path></g></g></g><g id="g-root-cp_-1_line-bottom_6_1q6cq49m9v9xg-fill" data-item-order="-174562" transform="translate(176, 191)"></g><g id="g-root-cp_-1_line-bottom_6_1q6cq49m9v9xg-stroke" data-item-order="-174562" transform="translate(176, 191)"><g id="cp_-1_line-bottom_6_1q6cq49m9v9xg-stroke" fill="none" stroke-linecap="round" stroke-linejoin="round" stroke-miterlimit="4" stroke="#f4f4f4" stroke-width="2" stroke-opacity="1"><g><path d="M 10 10L 10 13"></path></g></g></g><g id="g-root-cp_-1_line-bottom_7_1happvdm9vaq5-fill" data-item-order="-174558" transform="translate(176, 194)"></g><g id="g-root-cp_-1_line-bottom_7_1happvdm9vaq5-stroke" data-item-order="-174558" transform="translate(176, 194)"><g id="cp_-1_line-bottom_7_1happvdm9vaq5-stroke" fill="none" stroke-linecap="round" stroke-linejoin="round" stroke-miterlimit="4" stroke="#f4f4f4" stroke-width="2" stroke-opacity="1"><g><path d="M 10 10C 10 16.0751 14.9249 21 21 21C 14.9249 21 10 25.9249 10 32"></path></g></g></g><g id="g-root-cp_-1_line-bottom_8_1cuw7qxm9vbie-fill" data-item-order="-174554" transform="translate(176, 216)"></g><g id="g-root-cp_-1_line-bottom_8_1cuw7qxm9vbie-stroke" data-item-order="-174554" transform="translate(176, 216)"><g id="cp_-1_line-bottom_8_1cuw7qxm9vbie-stroke" fill="none" stroke-linecap="round" stroke-linejoin="round" stroke-miterlimit="4" stroke="#f4f4f4" stroke-width="2" stroke-opacity="1"><g><path d="M 10 10L 10 13"></path></g></g></g><g id="g-root-cp_-1_line-bottom_9_1cuw7qxm9vbif-fill" data-item-order="-174550" transform="translate(165, 219)"></g><g id="g-root-cp_-1_line-bottom_9_1cuw7qxm9vbif-stroke" data-item-order="-174550" transform="translate(165, 219)"><g id="cp_-1_line-bottom_9_1cuw7qxm9vbif-stroke" fill="none" stroke-linecap="round" stroke-linejoin="round" stroke-miterlimit="4" stroke="#f4f4f4" stroke-width="2" stroke-opacity="1"><g><path d="M 10 21C 16.0751 21 21 16.0751 21 10"></path></g></g></g><g id="g-root-cp_1_g-1_18fp6plm9v94w-fill" data-item-order="-174534" transform="translate(283, 116)"></g><g id="g-root-cp_1_g-1_18fp6plm9v94w-stroke" data-item-order="-174534" transform="translate(283, 116)"></g><g id="g-root-cp_2_g-2_v48oc9m9vapt-fill" data-item-order="-174504" transform="translate(283, 223)"></g><g id="g-root-cp_2_g-2_v48oc9m9vapt-stroke" data-item-order="-174504" transform="translate(283, 223)"></g><g id="g-root-cp_2-1_g-2-1_m8lo3dm9vbii-fill" data-item-order="-174478" transform="translate(428.359375, 192)"></g><g id="g-root-cp_2-1_g-2-1_m8lo3dm9vbii-stroke" data-item-order="-174478" transform="translate(428.359375, 192)"></g><g id="g-root-cp_2-2_g-2-2_hten21m9v94z-fill" data-item-order="-174456" transform="translate(428.359375, 228)"></g><g id="g-root-cp_2-2_g-2-2_hten21m9v94z-stroke" data-item-order="-174456" transform="translate(428.359375, 228)"></g><g id="g-root-cp_2-3_g-2-3_8xrmt5m9v9xo-fill" data-item-order="-174434" transform="translate(428.359375, 264)"></g><g id="g-root-cp_2-3_g-2-3_8xrmt5m9v9xo-stroke" data-item-order="-174434" transform="translate(428.359375, 264)"></g><g id="g-root-he_4hy4opm9vapy-fill" data-item-order="-174408" transform="translate(187, 133)"></g><g id="g-root-he_4hy4opm9vapy-stroke" data-item-order="-174408" transform="translate(187, 133)"><g id="he_4hy4opm9vapy-stroke" fill="none" stroke-linecap="round" stroke-linejoin="round" stroke-miterlimit="4" stroke="#ffffff" stroke-width="2" stroke-opacity="1"><g><path d="M 10 82L 58 82M 106 10L 70 10C 63.372585 10 58.000001 15.372583 58.000001 22L 58 105C 58.000001 111.62742 63.372585 117.000003 70.000002 117.000003L 106 117"></path></g></g></g><g id="g-root-he_24mk9m9vbi8-fill" data-item-order="-174406" transform="translate(392.359375, 204)"></g><g id="g-root-he_24mk9m9vbi8-stroke" data-item-order="-174406" transform="translate(392.359375, 204)"><g id="he_24mk9m9vbi8-stroke" fill="none" stroke-linecap="round" stroke-linejoin="round" stroke-miterlimit="4" stroke="#fb6762" stroke-width="2" stroke-opacity="1"><g><path d="M 10 46L 28 46M 46 10L 40 10C 33.372584 10 28 15.372583 28.000001 22L 28 70C 28 76.627419 33.372584 82.000002 40.000001 82.000002L 46 82M 28 46L 46 46"></path></g></g></g><g id="g-root-tx_interfaz_1lsen95m9v9qa-fill" data-item-order="0" transform="translate(48.4921875, 198)"><g id="tx_interfaz_1lsen95m9v9qa-fill-merged" stroke="none" fill="#ffffff" fill-opacity="1"><g><text style="font: 12px Roboto, sans-serif; white-space: pre;" transform="translate(62.5078125, 17)" font-size="12px" font-family="Roboto, sans-serif"><tspan x="-50.51" y="7" dominant-baseline="ideographic">Interfaz de Usuario</tspan></text></g></g></g><g id="g-root-tx_interfaz_1lsen95m9v9qa-stroke" data-item-order="0" transform="translate(48.4921875, 198)"></g><g id="g-root-tx_capadeap_zlxlq1m9v8y3-fill" data-item-order="0" transform="translate(293, 126)"><g id="tx_capadeap_zlxlq1m9v8y3-fill-merged" stroke="none" fill="#f79438" fill-opacity="1"><g><text style="font: 12px Roboto, sans-serif; white-space: pre;" transform="translate(10, 17)" font-size="12px" font-family="Roboto, sans-serif"><tspan x="2" y="7" dominant-baseline="ideographic">Capa de Aplicación</tspan></text></g></g></g><g id="g-root-tx_capadeap_zlxlq1m9v8y3-stroke" data-item-order="0" transform="translate(293, 126)"></g><g id="g-root-tx_basededa_mah3cpm9vaj1-fill" data-item-order="0" transform="translate(434.359375, 198)"><g id="tx_basededa_mah3cpm9vaj1-fill-merged" stroke="none" fill="#fb6762" fill-opacity="1"><g><text style="font: 10.5px Roboto, sans-serif; white-space: pre;" transform="translate(10, 16)" font-size="10.5px" font-family="Roboto, sans-serif"><tspan x="2" y="6" dominant-baseline="ideographic">Base de Datos</tspan></text></g></g></g><g id="g-root-tx_basededa_mah3cpm9vaj1-stroke" data-item-order="0" transform="translate(434.359375, 198)"></g><g id="g-root-tx_diagrama_24mk9m9vbi9-fill" data-item-order="0" transform="translate(125.3828125, 38)"><g id="tx_diagrama_24mk9m9vbi9-fill-merged" stroke="none" fill="#f4f4f4" fill-opacity="1"><g><text style="font: bold 20px Roboto, sans-serif; white-space: pre;" transform="translate(180.90625, 22)" font-weight="bold" font-size="20px" font-family="Roboto, sans-serif"><tspan x="-168.91" y="12" dominant-baseline="ideographic">Diagrama de Arquitectura a Alto Nivel</tspan></text></g></g></g><g id="g-root-tx_diagrama_24mk9m9vbi9-stroke" data-item-order="0" transform="translate(125.3828125, 38)"></g><g id="g-root-tx_servidor_v643llm9v9qc-fill" data-item-order="0" transform="translate(293, 233)"><g id="tx_servidor_v643llm9v9qc-fill-merged" stroke="none" fill="#fb6762" fill-opacity="1"><g><text style="font: 12px Roboto, sans-serif; white-space: pre;" transform="translate(10, 17)" font-size="12px" font-family="Roboto, sans-serif"><tspan x="2" y="7" dominant-baseline="ideographic">Servidores MCP</tspan></text></g></g></g><g id="g-root-tx_servidor_v643llm9v9qc-stroke" data-item-order="0" transform="translate(293, 233)"></g><g id="g-root-tx_servicio_4jtjy1m9v9qf-fill" data-item-order="0" transform="translate(434.359375, 270)"><g id="tx_servicio_4jtjy1m9v9qf-fill-merged" stroke="none" fill="#fb6762" fill-opacity="1"><g><text style="font: 10.5px Roboto, sans-serif; white-space: pre;" transform="translate(10, 16)" font-size="10.5px" font-family="Roboto, sans-serif"><tspan x="2" y="6" dominant-baseline="ideographic">Servicios de Red</tspan></text></g></g></g><g id="g-root-tx_servicio_4jtjy1m9v9qf-stroke" data-item-order="0" transform="translate(434.359375, 270)"></g><g id="g-root-tx_capadese_8zn22hm9v8y6-fill" data-item-order="0" transform="translate(434.359375, 234)"><g id="tx_capadese_8zn22hm9v8y6-fill-merged" stroke="none" fill="#fb6762" fill-opacity="1"><g><text style="font: 10.5px Roboto, sans-serif; white-space: pre;" transform="translate(10, 16)" font-size="10.5px" font-family="Roboto, sans-serif"><tspan x="2" y="6" dominant-baseline="ideographic">Capa de Seguridad</tspan></text></g></g></g><g id="g-root-tx_capadese_8zn22hm9v8y6-stroke" data-item-order="0" transform="translate(434.359375, 234)"></g></g></g><path id="wqqwjllo7zg1t" d="M65.283 12.757a.35.35 0 0 0 .584.157l5.203-5.141-6.183 3.523.396 1.461zm-2.216-11.7a.35.35 0 0 0-.522.305v3.111l3.276-1.868-2.754-1.548zm3.728 2.105l-4.25 2.421v2.445l6.391-3.644-2.141-1.222zm4.708 3.303a.35.35 0 0 0 0-.609l-1.592-.9-7.365 4.199v1.782a.35.35 0 0 0 .523.305l8.435-4.777z M44.542 2.513c0-.433.355-.783.792-.783s.792.35.792.783-.355.783-.792.783-.792-.35-.792-.783zm59.171 0c0-.433.355-.783.792-.783s.792.35.792.783-.355.783-.792.783-.792-.35-.792-.783zm-85.951 7.636h-1.27v-.487c-.276.201-.864.609-1.881.609-1.202 0-2.274-.794-2.137-2.078.118-1.106 1.153-1.584 1.848-1.727l2.17-.345c0-.539-.29-.956-1.064-1.006s-1.21.305-1.571 1.017l-1.124-.605c1.218-2.631 5.029-1.764 5.029.414v4.207zm-1.27-2.86c.006.396-.062 1.112-.819 1.59-.587.37-1.841.299-1.903-.395-.049-.555.461-.791.906-.898l1.816-.297zm72.662 2.86h-1.27v-.487c-.276.201-.864.609-1.881.609-1.202 0-2.274-.794-2.137-2.078.118-1.106 1.153-1.584 1.848-1.727l2.17-.345c0-.539-.29-.956-1.064-1.006s-1.21.305-1.571 1.017l-1.124-.605c1.218-2.631 5.029-1.764 5.029.414v4.207zm-1.27-2.86c.006.396-.062 1.112-.82 1.59-.587.37-1.841.299-1.903-.395-.049-.555.461-.791.906-.898l1.816-.297zM99.096 10.149H97.85v-8.45h1.246v4.895l2.68-2.559h1.738l-2.633 2.535 2.715 3.578h-1.556l-2.077-2.707-.867.844v1.863zm6.053-6.114h-1.255v6.113h1.255V4.035zm-59.2 0h-1.255v6.113h1.255V4.035zm5.584 6.113V1.697h1.255v2.695c.361-.346 1-.485 1.47-.485 1.452 0 2.477 1.082 2.457 2.448v3.792h-1.27v-3.68c0-.408-.214-1.339-1.315-1.339-.968 0-1.342.756-1.342 1.339v3.681h-1.255zm-4.76-4.894V4.039h.621a.45.45 0 0 0 .45-.45v-.855h1.251v1.305h1.309v1.215h-1.309v3.109c0 .293.105.664.648.664.365 0 .531-.035.736-.07v1.137s-.361.113-.857.113c-1.398 0-1.777-1.051-1.777-1.788V5.254h-1.071zM36.528 4.039h-1.394l2.191 6.106h1.125l1.234-3.918 1.238 3.918h1.129l2.188-6.106h-1.383l-1.359 3.93-1.256-3.93h-1.124l-1.242 3.957-1.348-3.957zM26.212 7.141c-.02 1.566 1.187 3.129 3.223 3.129 1.566 0 2.383-.918 2.734-1.719L31.172 8c-.315.399-.801 1.094-1.738 1.094-1.145 0-1.825-.781-1.891-1.52h4.625c.074-.284.148-.995-.03-1.559-.336-1.064-1.221-2.102-2.839-2.102s-3.088 1.152-3.088 3.227zm1.363-.75h3.348c-.055-.43-.566-1.301-1.623-1.301a1.79 1.79 0 0 0-1.725 1.301zm-8.758.75c.038 1.758 1.277 3.133 3.145 3.133 1.074 0 1.723-.477 1.961-.672v.547h1.242V1.703h-1.258v2.888c-.414-.36-1.062-.68-1.93-.68-1.91 0-3.198 1.473-3.16 3.23zm1.309-.08c0 1.119.723 1.978 1.836 1.978a1.88 1.88 0 0 0 1.94-1.904c0-1.371-1.011-1.99-1.972-1.99s-1.805.798-1.805 1.916zm76.683-.028C96.771 5.275 95.532 3.9 93.664 3.9c-1.074 0-1.723.477-1.961.672v-.547h-1.242v8.22h1.258V9.583c.414.36 1.063.68 1.93.68 1.91 0 3.198-1.473 3.16-3.23zm-1.309.08c0-1.119-.723-1.978-1.836-1.978a1.88 1.88 0 0 0-1.94 1.904c0 1.371 1.011 1.99 1.972 1.99S95.5 8.231 95.5 7.113zM106.441 10.173V4.036h1.254v.382c.361-.346 1-.485 1.47-.485 1.452 0 2.477 1.082 2.457 2.448v3.792h-1.27V6.492c0-.408-.214-1.339-1.315-1.339-.969 0-1.342.756-1.342 1.339v3.681h-1.254zm-30.383-.021V1.824h1.084l4.215 5.777V1.824h1.32v8.328h-1.094l-4.207-5.796v5.796h-1.319zM5.24 10.149H4V2.377h1.014l2.664 3.597 2.654-3.592h1.03v7.766h-1.256V4.762L7.678 8.068 5.24 4.742v5.407z" transform="translate(20, 306)" fill="#ababab88" stroke="none"></path></svg>