<?xml version="1.0" encoding="utf-8" standalone="yes"?>
<!DOCTYPE svg PUBLIC "-//W3C//DTD SVG 1.1//EN" "http://www.w3.org/Graphics/SVG/1.1/DTD/svg11.dtd">
<svg style="fill:none;stroke:none;fill-rule:evenodd;clip-rule:evenodd;stroke-linecap:round;stroke-linejoin:round;stroke-miterlimit:1.5;" version="1.1" xmlns="http://www.w3.org/2000/svg" xmlns:xlink="http://www.w3.org/1999/xlink" width="827" height="621" viewBox="0 0 827 621"><style class="text-font-style fontImports" data-font-family="Roboto">@import url(https://fonts.googleapis.com/css2?family=Roboto:wght@400;700&amp;display=block);</style><g id="items" style="isolation: isolate"><g id="blend" style="mix-blend-mode: normal"><g id="g-root-cp_4_g-4_18gyr2wq5o6bx-fill" data-item-order="-444302" transform="translate(197.83950805664062, 128)"><g id="cp_4_g-4_18gyr2wq5o6bx-fill-merged" stroke="none" fill="#6b6b6b" fill-opacity="1"><g><path d="M15.471 98C15.471 134.451 45.02 164 81.471 164C117.922 164 147.471 134.451 147.471 98C147.471 61.549 117.922 32 81.471 32C45.02 32 15.471 61.549 15.471 98"></path></g></g><g id="cp_4_g-4_18gyr2wq5o6bx-fill-merged" stroke="none" fill="#6b6b6b" fill-opacity="1"><g><path d="M233.472 51L189.472 10 V35.905C168.403 37.273 147.672 42.09 128.114 50.191C127.848 50.301 127.583 50.412 127.318 50.523C136.769 59.65 143.501 71.574 146.184 84.96C160.071 79.563 174.653 76.215 189.472 75.008 V92L233.472 51 M63.323 161.473C50.282 157.752 38.89 150.12 30.497 139.926C28.018 144.726 25.737 149.635 23.663 154.642C16.512 171.907 11.919 195.086 10 213.604L25.472 197L48.429 221.637C49.678 205.476 53.472 184.588 59.694 169.567C60.827 166.831 62.038 164.133 63.323 161.473"></path></g></g></g><g id="g-root-cp_4_g-4_18gyr2wq5o6bx-stroke" data-item-order="-444302" transform="translate(197.83950805664062, 128)"><g id="cp_4_g-4_18gyr2wq5o6bx-stroke" fill="none" stroke-linecap="round" stroke-linejoin="round" stroke-miterlimit="4" stroke="#d3d3d3" stroke-width="2" stroke-opacity="1"><g><path d="M 15.470703 98C 15.470705 134.450795 45.019912 164.000002 81.470705 164.000002C 117.921499 164.000002 147.470705 134.450795 147.470705 98.000002C 147.470705 61.549208 117.921499 32.000002 81.470705 32.000002C 45.019912 32.000002 15.470705 61.549208 15.470705 98.000002"></path></g></g><g id="cp_4_g-4_18gyr2wq5o6bx-stroke" fill="none" stroke-linecap="round" stroke-linejoin="round" stroke-miterlimit="4" stroke="#d3d3d3" stroke-width="2" stroke-opacity="1"><g><path d="M 233.4716 51L 189.4716 10L 189.4716 35.9052C 168.4028 37.2726 147.672 42.09 128.1139 50.1913C 127.8484 50.3012 127.5833 50.4117 127.3185 50.5228C 136.7686 59.6504 143.5011 71.5735 146.1838 84.9601C 160.0711 79.5626 174.6533 76.2149 189.4716 75.0081L 189.4716 92L 233.4716 51ZM 63.3232 161.4734C 50.2822 157.7517 38.8904 150.1196 30.4968 139.9261C 28.0176 144.7257 25.737 149.635 23.663 154.6421C 16.5117 171.9069 11.9193 195.0856 10 213.6038L 25.4717 197L 48.4293 221.6374C 49.6779 205.4763 53.4723 184.588 59.6943 169.5668C 60.8274 166.8314 62.0376 164.1326 63.3232 161.4734Z"></path></g></g></g><g id="g-root-cp_3_g-3_v5i8pkq5o7wu-fill" data-item-order="-444296" transform="translate(172.3125, 314.99993896484375)"><g id="cp_3_g-3_v5i8pkq5o7wu-fill-merged" stroke="none" fill="#6b6b6b" fill-opacity="1"><g><path d="M41 163C41 199.451 70.549 229 107 229C143.451 229 173 199.451 173 163C173 126.549 143.451 97 107 97C70.549 97 41 126.549 41 163"></path></g></g><g id="cp_3_g-3_v5i8pkq5o7wu-fill-merged" stroke="none" fill="#6b6b6b" fill-opacity="1"><g><path d="M51 10L92 54 H74.008C75.306 69.941 79.082 85.61 85.223 100.433C85.252 100.504 85.282 100.575 85.311 100.647C72.318 105.165 61.173 113.631 53.31 124.607C51.858 121.564 50.484 118.48 49.191 115.358C41.09 95.8 36.273 75.069 34.905 54 H10L51 10 M145.835 216.371C148.409 217.573 151.012 218.719 153.642 219.809C171.626 227.258 195.602 231.931 214.919 233.698L197 217L220.57 195.037C204.775 193.81 184.452 190.151 169.531 184.171C165.118 197.21 156.742 208.421 145.835 216.371"></path></g></g></g><g id="g-root-cp_3_g-3_v5i8pkq5o7wu-stroke" data-item-order="-444296" transform="translate(172.3125, 314.99993896484375)"><g id="cp_3_g-3_v5i8pkq5o7wu-stroke" fill="none" stroke-linecap="round" stroke-linejoin="round" stroke-miterlimit="4" stroke="#d3d3d3" stroke-width="2" stroke-opacity="1"><g><path d="M 41 163.000061C 41.000002 199.450856 70.549208 229.000063 107.000002 229.000063C 143.450795 229.000063 173.000002 199.450856 173.000002 163.000063C 173.000002 126.549269 143.450795 97.000063 107.000002 97.000063C 70.549208 97.000063 41.000002 126.549269 41.000002 163.000063"></path></g></g><g id="cp_3_g-3_v5i8pkq5o7wu-stroke" fill="none" stroke-linecap="round" stroke-linejoin="round" stroke-miterlimit="4" stroke="#d3d3d3" stroke-width="2" stroke-opacity="1"><g><path d="M 51 10.000061L 92 54.000061L 74.0081 54.000061C 75.3064 69.941461 79.0824 85.609561 85.2225 100.433361C 85.252 100.504361 85.2815 100.575461 85.3111 100.646561C 72.3183 105.165361 61.1728 113.630561 53.3098 124.606961C 51.8579 121.563961 50.4844 118.479961 49.1912 115.357961C 41.09 95.799861 36.2726 75.068861 34.9052 54.000061L 10 54.000061L 51 10.000061ZM 145.835 216.370961C 148.4092 217.573161 151.0122 218.719461 153.6421 219.808861C 171.626 227.257961 195.6015 231.930661 214.9194 233.697661L 197 217.000061L 220.5698 195.037261C 204.7751 193.809961 184.4522 190.150961 169.5314 184.170561C 165.1184 197.209661 156.7415 208.421261 145.835 216.370961Z"></path></g></g></g><g id="g-root-cp_2_g-2_qpoql4q5o8p3-fill" data-item-order="-444290" transform="translate(359.3125, 352.43597412109375)"><g id="cp_2_g-2_qpoql4q5o8p3-fill-merged" stroke="none" fill="#6b6b6b" fill-opacity="1"><g><path d="M106 125.564C106 162.014 135.549 191.564 172 191.564C208.451 191.564 238 162.014 238 125.564C238 89.113 208.451 59.564 172 59.564C135.549 59.564 106 89.113 106 125.564"></path></g></g><g id="cp_2_g-2_qpoql4q5o8p3-fill-merged" stroke="none" fill="#6b6b6b" fill-opacity="1"><g><path d="M217 34.564L232.585 17.839C230.737 36.744 226.104 60.308 218.809 77.921C218.7 78.184 218.591 78.446 218.481 78.707C209.187 69.487 197.164 63.013 183.731 60.603C189.502 45.532 192.998 25.637 194.111 10L217 34.564 M108.167 142.401C105.301 143.803 102.388 145.117 99.433 146.341C84.92 152.353 69.596 156.098 54 157.471 V138.564L10 179.564L54 220.564 V196.591C74.725 195.138 95.109 190.345 114.358 182.372C119.325 180.315 124.195 178.055 128.958 175.599C118.989 167.016 111.614 155.505 108.167 142.401"></path></g></g></g><g id="g-root-cp_2_g-2_qpoql4q5o8p3-stroke" data-item-order="-444290" transform="translate(359.3125, 352.43597412109375)"><g id="cp_2_g-2_qpoql4q5o8p3-stroke" fill="none" stroke-linecap="round" stroke-linejoin="round" stroke-miterlimit="4" stroke="#d3d3d3" stroke-width="2" stroke-opacity="1"><g><path d="M 106 125.56369C 106.000002 162.014486 135.549208 191.563692 172.000002 191.563692C 208.450795 191.563692 238.000002 162.014486 238.000002 125.563692C 238.000002 89.112899 208.450795 59.563692 172.000002 59.563692C 135.549208 59.563692 106.000002 89.112899 106.000002 125.563692"></path></g></g><g id="cp_2_g-2_qpoql4q5o8p3-stroke" fill="none" stroke-linecap="round" stroke-linejoin="round" stroke-miterlimit="4" stroke="#d3d3d3" stroke-width="2" stroke-opacity="1"><g><path d="M 217 34.563661L 232.5846 17.838661C 230.7367 36.744261 226.1043 60.308461 218.8088 77.921461C 218.7001 78.183761 218.5909 78.445761 218.4812 78.707461C 209.1867 69.486961 197.1638 63.012661 183.7306 60.602961C 189.5021 45.531561 192.9979 25.637261 194.1112 10.000061L 217 34.563661ZM 108.167 142.400861C 105.301 143.802761 102.3885 145.117061 99.4333 146.341161C 84.9196 152.352861 69.5965 156.098361 54 157.470861L 54 138.563661L 10 179.563661L 54 220.563661L 54 196.590961C 74.7246 195.137761 95.1093 190.345461 114.3579 182.372461C 119.3246 180.315161 124.1951 178.054661 128.9576 175.598661C 118.9894 167.015761 111.6142 155.504761 108.167 142.400861Z"></path></g></g></g><g id="g-root-cp_1_g-1_mahpjsq5o6bk-fill" data-item-order="-444284" transform="translate(395.6815185546875, 150)"><g id="cp_1_g-1_mahpjsq5o6bk-fill-merged" stroke="none" fill="#5a48a4" fill-opacity="1"><g><path d="M69.631 76C69.631 112.451 99.18 142 135.631 142C172.082 142 201.631 112.451 201.631 76C201.631 39.549 172.082 10 135.631 10C99.18 10 69.631 39.549 69.631 76"></path></g></g><g id="cp_1_g-1_mahpjsq5o6bk-fill-merged" stroke="none" fill="#5a48a4" fill-opacity="1"><g><path d="M179.305 125.485C169.577 134.077 157.296 139.845 143.745 141.506C144.675 143.505 145.564 145.526 146.409 147.567C152.421 162.08 156.166 177.404 157.539 193 H139.632L180.632 237L221.632 193 H196.659C195.206 172.275 190.413 151.891 182.44 132.642C181.443 130.233 180.397 127.847 179.305 125.485 M86.481 31.951C83.684 30.631 80.853 29.377 77.99 28.191C61.102 21.196 38.339 16.649 20.24 14.658L35.632 29L10 52.884C26.504 54.052 47.736 57.873 63.065 64.223C65.468 65.218 67.844 66.273 70.188 67.387C71.952 53.859 77.811 41.618 86.481 31.951"></path></g></g></g><g id="g-root-cp_1_g-1_mahpjsq5o6bk-stroke" data-item-order="-444284" transform="translate(395.6815185546875, 150)"><g id="cp_1_g-1_mahpjsq5o6bk-stroke" fill="none" stroke-linecap="round" stroke-linejoin="round" stroke-miterlimit="4" stroke="#b09cff" stroke-width="2" stroke-opacity="1"><g><path d="M 69.630859 76C 69.630861 112.450795 99.180068 142.000002 135.630861 142.000002C 172.081655 142.000002 201.630861 112.450795 201.630861 76.000002C 201.630861 39.549208 172.081655 10.000002 135.630861 10.000002C 99.180068 10.000002 69.630861 39.549208 69.630861 76.000002"></path></g></g><g id="cp_1_g-1_mahpjsq5o6bk-stroke" fill="none" stroke-linecap="round" stroke-linejoin="round" stroke-miterlimit="4" stroke="#b09cff" stroke-width="2" stroke-opacity="1"><g><path d="M 179.3046 125.485066C 169.5765 134.077166 157.2955 139.845266 143.7447 141.506266C 144.6752 143.505266 145.5636 145.525866 146.409 147.566866C 152.4208 162.080466 156.1662 177.403566 157.5387 193.000066L 139.6316 193.000066L 180.6316 237.000066L 221.6316 193.000066L 196.6589 193.000066C 195.2057 172.275366 190.4134 151.890766 182.4404 132.642066C 181.4426 130.233366 180.3971 127.847166 179.3046 125.485066ZM 86.4815 31.950566C 83.6843 30.630966 80.8529 29.377366 77.9895 28.191266C 61.1015 21.196066 38.3392 16.649266 20.2399 14.657766L 35.6316 28.999966L 10 52.883966C 26.5036 54.051566 47.7357 57.872966 63.0648 64.222566C 65.4683 65.218066 67.8436 66.273266 70.1885 67.386766C 71.9516 53.858966 77.8111 41.618466 86.4815 31.950566Z"></path></g></g></g><g id="g-root-tx_ciclodeo_8z176gq5o7wh-fill" data-item-order="0" transform="translate(201.859375, 38)"><g id="tx_ciclodeo_8z176gq5o7wh-fill-merged" stroke="none" fill="#333333" fill-opacity="1"><g><text style="font: bold 25px Roboto, sans-serif; white-space: pre;" transform="translate(203.453125, 25)" font-weight="bold" font-size="25px" font-family="Roboto, sans-serif"><tspan x="-191.45" y="15" dominant-baseline="ideographic">Ciclo de Optimización del Pipeline</tspan></text></g></g></g><g id="g-root-tx_ciclodeo_8z176gq5o7wh-stroke" data-item-order="0" transform="translate(201.859375, 38)"></g><g id="g-root-tx_optimiza_htf994q5wlqn-fill" data-item-order="0" transform="translate(57.921875, 152)"><g id="tx_optimiza_htf994q5wlqn-fill-merged" stroke="none" fill="#333333" fill-opacity="1"><g><text style="font: 20px Roboto, sans-serif; white-space: pre;" transform="translate(131.390625, 34)" font-size="20px" font-family="Roboto, sans-serif"><tspan x="-119.39" y="0" dominant-baseline="ideographic">Optimización </tspan><tspan x="-81.83" y="24" dominant-baseline="ideographic">Continua</tspan></text></g></g></g><g id="g-root-tx_optimiza_htf994q5wlqn-stroke" data-item-order="0" transform="translate(57.921875, 152)"></g><g id="g-root-ic_1_me8k2gq5ttlb-fill" data-item-order="0" transform="translate(239.3125, 186)"></g><g id="g-root-ic_1_me8k2gq5ttlb-stroke" data-item-order="0" transform="translate(239.3125, 186)"><g id="ic_1_me8k2gq5ttlb-stroke" fill="none" stroke-linecap="round" stroke-linejoin="round" stroke-miterlimit="4" stroke="#d3d3d3" stroke-width="2" stroke-opacity="1"><g><path d="M 11.26 67.5L 68.760002 67.5M 21.25 67.5L 21.25 56.25C 21.25 55.559647 20.690357 55 20 55L 15 55C 14.309644 55 13.75 55.559647 13.75 56.25L 13.75 67.5M 36.25 67.5L 36.25 43.75C 36.25 43.059647 35.690353 42.5 35 42.5L 30 42.5C 29.309643 42.5 28.75 43.059647 28.75 43.75L 28.75 67.5M 51.25 67.5L 51.25 48.75C 51.25 48.059647 50.690353 47.5 50 47.5L 45 47.5C 44.309647 47.5 43.75 48.059647 43.75 48.75L 43.75 67.5M 66.25 67.5L 66.25 31.25C 66.25 30.559645 65.690353 30 65 30L 60 30C 59.309647 30 58.75 30.559645 58.75 31.25L 58.75 67.5M 63.75 12.5L 49.700001 27.640001C 48.365231 29.079229 46.311806 29.604319 44.450001 28.9825L 35.1525 25.880001C 33.509613 25.332314 31.700302 25.673746 30.369999 26.782499L 17.5 37.5M 53.759998 12.5L 63.759998 12.5L 63.759998 22.5"></path></g></g></g><g id="g-root-ic_sear_1lto7mgq5o6x6-fill" data-item-order="0" transform="translate(491.3125, 186)"></g><g id="g-root-ic_sear_1lto7mgq5o6x6-stroke" data-item-order="0" transform="translate(491.3125, 186)"><g id="ic_sear_1lto7mgq5o6x6-stroke" fill="none" stroke-linecap="round" stroke-linejoin="round" stroke-miterlimit="4" stroke="#b09cff" stroke-width="2" stroke-opacity="1"><g><path d="M 19.369999 28.789999C 21.865831 19.038147 31.220501 12.660886 41.209957 13.901271C 51.199413 15.141656 58.710327 23.613108 58.745377 33.679214C 58.780422 43.745327 51.328678 52.268871 41.348103 53.578789C 31.367527 54.888702 21.968678 48.576736 19.405001 38.842499M 51.585003 49.09L 68.75 66.25M 11.25 33.75L 25.529999 33.75C 25.975677 33.749096 26.387161 33.510967 26.610001 33.125L 29.815001 27.584999C 30.062351 27.153948 30.541561 26.910374 31.035572 26.964602C 31.529583 27.018829 31.944544 27.360556 32.092499 27.834999L 35.342499 38.364998C 35.493172 38.852955 35.925526 39.200184 36.434498 39.242004C 36.943474 39.283821 37.426704 39.011818 37.654999 38.555L 41.547501 30.772499C 41.746735 30.374157 42.142876 30.111916 42.587399 30.084103C 43.031918 30.056286 43.457661 30.267101 43.705002 30.637501L 46.547501 34.9025C 46.77018 35.23724 47.140274 35.444439 47.542042 35.459297C 47.943806 35.474163 48.328197 35.294872 48.575001 34.977501L 52.447502 30"></path></g></g></g><g id="g-root-tx_diagnsti_8wjau0q5wl4z-fill" data-item-order="0" transform="translate(611.3125, 152)"><g id="tx_diagnsti_8wjau0q5wl4z-fill-merged" stroke="none" fill="#7f64e9" fill-opacity="1"><g><text style="font: 20px Roboto, sans-serif; white-space: pre;" transform="translate(10, 34)" font-size="20px" font-family="Roboto, sans-serif"><tspan x="2" y="0" dominant-baseline="ideographic">Diagnóstico del </tspan><tspan x="2" y="24" dominant-baseline="ideographic">Pipeline</tspan></text></g></g></g><g id="g-root-tx_diagnsti_8wjau0q5wl4z-stroke" data-item-order="0" transform="translate(611.3125, 152)"></g><g id="g-root-tx_monitore_ddlr4oq5wmiw-fill" data-item-order="0" transform="translate(26.5, 212)"><g id="tx_monitore_ddlr4oq5wmiw-fill-merged" stroke="none" fill="#333333" fill-opacity="1"><g><text style="font: 15px Roboto, sans-serif; white-space: pre;" transform="translate(162.8125, 28)" font-size="15px" font-family="Roboto, sans-serif"><tspan x="-150.81" y="0" dominant-baseline="ideographic">Monitorear y ajustar el </tspan><tspan x="-81.66" y="18" dominant-baseline="ideographic">rendimiento</tspan></text></g></g></g><g id="g-root-tx_monitore_ddlr4oq5wmiw-stroke" data-item-order="0" transform="translate(26.5, 212)"></g><g id="g-root-tx_analizar_wal4q5wlxo-fill" data-item-order="0" transform="translate(611.3125, 212)"><g id="tx_analizar_wal4q5wlxo-fill-merged" stroke="none" fill="#8769fd" fill-opacity="1"><g><text style="font: 15px Roboto, sans-serif; white-space: pre;" transform="translate(10, 28)" font-size="15px" font-family="Roboto, sans-serif"><tspan x="2" y="0" dominant-baseline="ideographic">Analizar el proceso </tspan><tspan x="2" y="18" dominant-baseline="ideographic">comercial actual</tspan></text></g></g></g><g id="g-root-tx_analizar_wal4q5wlxo-stroke" data-item-order="0" transform="translate(611.3125, 212)"></g><g id="g-root-ic_sett_dg3nh4q5sdfx-fill" data-item-order="0" transform="translate(239.3125, 438)"></g><g id="g-root-ic_sett_dg3nh4q5sdfx-stroke" data-item-order="0" transform="translate(239.3125, 438)"><g id="ic_sett_dg3nh4q5sdfx-stroke" fill="none" stroke-linecap="round" stroke-linejoin="round" stroke-miterlimit="4" stroke="#d3d3d3" stroke-width="2" stroke-opacity="1"><g><path d="M 15.597375 59.375C 17.668449 59.375 19.347376 57.695999 19.347376 55.625C 19.347376 53.554001 17.668449 51.875 15.597375 51.875C 13.526325 51.875 11.847383 53.554001 11.847383 55.625C 11.847383 57.695999 13.526325 59.375 15.597375 59.375ZM 32.097626 47.754501C 34.168701 47.754501 35.847748 46.0755 35.847748 44.004501C 35.847748 41.933502 34.168701 40.254501 32.097626 40.254501C 30.02655 40.254501 28.347624 41.933502 28.347624 44.004501C 28.347624 46.0755 30.02655 47.754501 32.097626 47.754501ZM 10 10M 32.097626 47.754501L 32.097626 68.125M 19.347376 55.625L 21.458599 55.625C 23.042027 55.625 24.097626 56.625 24.097626 58.125L 24.097626 68.125M 48.3475 59.375C 50.418503 59.375 52.097504 57.695999 52.097504 55.625C 52.097504 53.554001 50.418503 51.875 48.3475 51.875C 46.276501 51.875 44.5975 53.554001 44.5975 55.625C 44.5975 57.695999 46.276501 59.375 48.3475 59.375ZM 44.5975 55.625L 42.5975 55.625C 41.0975 55.625 40.0975 56.625 40.0975 58.125L 40.0975 68.125M 10 10M 25.347324 35.125L 24.347326 33.874874C 23.847324 33.124878 22.597324 32.874847 21.847326 33.374851L 19.347324 34.874847C 17.347324 36.124748 14.8473 33.874851 15.847301 31.624849L 17.0973 29.124849C 17.5973 28.124849 17.0973 27.124849 16.3473 26.624849L 13.847301 25.374849C 11.597305 24.124849 12.347327 20.874874 14.847325 20.624874L 17.5973 20.374849C 18.5973 20.374849 19.347324 19.374849 19.347324 18.374849L 19.347324 15.624875C 19.347324 13.124875 22.3473 12.124852 23.8473 14.12485L 25.597326 16.374874C 26.097324 17.124876 27.347324 17.374874 28.097326 16.874874L 30.597324 15.37485C 32.597324 14.12485 35.097252 16.374851 34.097324 18.624849L 32.847324 21.124851C 32.347324 22.124849 32.847324 23.124849 33.597324 23.624851L 36.097252 24.874851C 38.347248 26.124851 37.597252 29.374849 35.097252 29.624849L 32.347324 29.874851C 31.347324 29.874851 30.597324 30.874874 30.597324 31.874876L 30.597324 33.374851M 10 10M 58.85025 15.93305L 59.710999 18.731075C 59.926254 19.807224 61.002499 20.2377 62.078499 20.022474L 64.876755 19.376776C 67.459503 18.731075 69.181252 21.744326 67.459503 23.6814L 65.522247 25.833725C 64.876755 26.694649 64.876755 27.770802 65.522247 28.416475L 67.459503 30.5688C 69.181252 32.505875 67.459503 35.518997 64.876755 34.873425L 62.078499 34.227722C 61.002499 34.012497 60.141502 34.658199 59.710999 35.519249L 58.85025 38.317249C 57.98925 40.899998 54.545498 40.899998 53.89975 38.317249L 53.038998 35.519249C 52.82375 34.442974 51.747498 34.012497 50.671249 34.227722L 47.873249 34.873425C 45.290501 35.518997 43.568748 32.505875 45.290501 30.5688L 47.227749 28.416475C 47.873249 27.55555 47.873249 26.479401 47.227749 25.833725L 45.290501 23.6814C 43.568748 21.744326 45.290501 18.731075 47.873249 19.376776L 50.671249 20.022474C 51.747498 20.2377 52.608498 19.592001 53.038998 18.731075L 53.89975 15.93305C 54.545498 13.350275 58.204498 13.350275 58.85025 15.93305ZM 24.972326 27.987551C 26.475349 27.987551 27.6938 26.769075 27.6938 25.26605C 27.6938 23.763 26.475349 22.54455 24.972326 22.54455C 23.469275 22.54455 22.250826 23.763 22.250826 25.26605C 22.250826 26.769075 23.469275 27.987551 24.972326 27.987551ZM 56.375 29.846676C 57.877998 29.846676 59.096497 28.628225 59.096497 27.125175C 59.096497 25.62215 57.877998 24.403675 56.375 24.403675C 54.87175 24.403675 53.653496 25.62215 53.653496 27.125175C 53.653496 28.628225 54.87175 29.846676 56.375 29.846676Z"></path></g></g></g><g id="g-root-ic_brai_dl3g60q5pm2y-fill" data-item-order="0" transform="translate(491.3125, 438)"></g><g id="g-root-ic_brai_dl3g60q5pm2y-stroke" data-item-order="0" transform="translate(491.3125, 438)"><g id="ic_brai_dl3g60q5pm2y-stroke" fill="none" stroke-linecap="round" stroke-linejoin="round" stroke-miterlimit="4" stroke="#d3d3d3" stroke-width="2" stroke-opacity="1"><g><path d="M 68.957504 40C 68.951172 43.922844 65.913437 47.173424 62 47.445C 64.284378 50.37925 64.60183 54.392021 62.80722 57.648956C 61.012619 60.905884 57.450806 62.781151 53.75 62.417503C 54.303978 64.278625 53.730297 66.292183 52.278614 67.581879C 50.826935 68.871567 48.759827 69.204124 46.976894 68.434814C 45.193962 67.665497 44.017693 65.933472 43.959999 63.9925C 41.636318 65.337059 38.771183 65.337059 36.447502 63.9925C 36.38623 65.931046 35.209404 67.659271 33.428139 68.426598C 31.646872 69.193924 29.582542 68.861908 28.131716 67.574738C 26.680887 66.287567 26.105326 64.277489 26.655001 62.417496C 22.954195 62.781151 19.392382 60.905884 17.597778 57.648956C 15.803177 54.392021 16.120623 50.37925 18.405001 47.445C 14.49101 47.176479 11.453263 43.923191 11.453263 40C 11.453263 36.076809 14.49101 32.823517 18.405001 32.555C 16.120623 29.620752 15.803177 25.607977 17.597778 22.351048C 19.392382 19.094114 22.954195 17.218851 26.655001 17.5825C 26.105326 15.722511 26.680887 13.712433 28.131716 12.425264C 29.582542 11.138097 31.646872 10.806076 33.428139 11.573402C 35.209404 12.340728 36.38623 14.068957 36.447502 16.0075C 38.771183 14.662937 41.636318 14.662937 43.960003 16.0075C 44.017693 14.066531 45.193962 12.334502 46.976894 11.565189C 48.759827 10.795877 50.826935 11.128429 52.278614 12.418122C 53.730297 13.707815 54.303978 15.721373 53.75 17.5825C 57.450806 17.218851 61.012619 19.094114 62.80722 22.351048C 64.60183 25.607977 64.284378 29.620752 62.000004 32.555C 65.913437 32.826576 68.951172 36.077156 68.957504 40ZM 40.2075 51.25L 40.2075 53.75M 40.2075 43.75L 40.2075 46.25M 48.002502 43.75L 48.002502 46.25M 40.2075 28.75L 40.2075 31.25M 40.2075 21.25L 40.2075 23.75M 40.2075 58.75L 40.2075 61.25M 27.7075 25C 27.7075 27.071068 29.386433 28.75 31.4575 28.75C 33.528568 28.75 35.2075 27.071068 35.2075 25C 35.2075 22.928932 33.528568 21.25 31.4575 21.25C 29.386433 21.25 27.7075 22.928932 27.7075 25ZM 46.4575 31.25C 46.4575 33.321068 48.136436 35 50.2075 35C 52.278572 35 53.9575 33.321068 53.9575 31.25C 53.9575 29.178932 52.278572 27.500002 50.2075 27.500002C 48.136436 27.500002 46.4575 29.178932 46.4575 31.25ZM 23.9575 52.5C 23.9575 54.571072 25.636433 56.25 27.7075 56.25C 29.778568 56.25 31.4575 54.571072 31.4575 52.5C 31.4575 50.428932 29.778568 48.750004 27.7075 48.750004C 25.636433 48.750004 23.9575 50.428932 23.9575 52.5ZM 45.2075 53.75C 45.2075 55.821072 46.886433 57.5 48.9575 57.5C 51.028572 57.5 52.7075 55.821072 52.7075 53.75C 52.7075 51.678932 51.028572 50 48.9575 50C 46.886433 50 45.2075 51.678932 45.2075 53.75ZM 51.4575 42.5C 51.4575 44.571068 53.136436 46.25 55.2075 46.25C 57.278572 46.25 58.9575 44.571068 58.9575 42.5C 58.9575 40.428932 57.278572 38.75 55.2075 38.75C 53.136436 38.75 51.4575 40.428932 51.4575 42.5ZM 53.959999 31.25C 55.34071 31.25 56.459999 30.130713 56.459999 28.75L 56.459999 25M 17.7075 41.25L 21.4575 41.25C 22.838213 41.25 23.9575 40.130714 23.9575 38.75L 23.9575 36.25C 23.9575 34.869286 25.076788 33.75 26.4575 33.75L 28.9575 33.75C 30.338211 33.75 31.4575 32.630714 31.4575 31.25L 31.4575 28.75M 31.4575 52.5C 32.838211 52.5 33.9575 53.619289 33.9575 55L 33.9575 60M 52.7075 53.75L 57.7075 53.75"></path></g></g></g><g id="g-root-tx_implemen_1haqc2gq5wo3p-fill" data-item-order="0" transform="translate(15.671875, 440)"><g id="tx_implemen_1haqc2gq5wo3p-fill-merged" stroke="none" fill="#333333" fill-opacity="1"><g><text style="font: 20px Roboto, sans-serif; white-space: pre;" transform="translate(173.640625, 34)" font-size="20px" font-family="Roboto, sans-serif"><tspan x="-161.64" y="0" dominant-baseline="ideographic">Implementación e </tspan><tspan x="-101.92" y="24" dominant-baseline="ideographic">Integración</tspan></text></g></g></g><g id="g-root-tx_implemen_1haqc2gq5wo3p-stroke" data-item-order="0" transform="translate(15.671875, 440)"></g><g id="g-root-tx_diseodel_1480gwoq5v8y1-fill" data-item-order="0" transform="translate(611.3125, 440)"><g id="tx_diseodel_1480gwoq5v8y1-fill-merged" stroke="none" fill="#333333" fill-opacity="1"><g><text style="font: 20px Roboto, sans-serif; white-space: pre;" transform="translate(10, 34)" font-size="20px" font-family="Roboto, sans-serif"><tspan x="2" y="0" dominant-baseline="ideographic">Diseño del Sistema </tspan><tspan x="2" y="24" dominant-baseline="ideographic">de Agentes de IA</tspan></text></g></g></g><g id="g-root-tx_diseodel_1480gwoq5v8y1-stroke" data-item-order="0" transform="translate(611.3125, 440)"></g><g id="g-root-tx_integrar_13zwas8q5wmiu-fill" data-item-order="0" transform="translate(31.203125, 500)"><g id="tx_integrar_13zwas8q5wmiu-fill-merged" stroke="none" fill="#333333" fill-opacity="1"><g><text style="font: 15px Roboto, sans-serif; white-space: pre;" transform="translate(158.109375, 28)" font-size="15px" font-family="Roboto, sans-serif"><tspan x="-146.11" y="0" dominant-baseline="ideographic">Integrar agentes en el </tspan><tspan x="-82.98" y="18" dominant-baseline="ideographic">stack actual</tspan></text></g></g></g><g id="g-root-tx_integrar_13zwas8q5wmiu-stroke" data-item-order="0" transform="translate(31.203125, 500)"></g><g id="g-root-tx_crearage_qn6u8oq5wlxm-fill" data-item-order="0" transform="translate(611.3125, 500)"><g id="tx_crearage_qn6u8oq5wlxm-fill-merged" stroke="none" fill="#333333" fill-opacity="1"><g><text style="font: 15px Roboto, sans-serif; white-space: pre;" transform="translate(10, 28)" font-size="15px" font-family="Roboto, sans-serif"><tspan x="2" y="0" dominant-baseline="ideographic">Crear agentes de IA </tspan><tspan x="2" y="18" dominant-baseline="ideographic">personalizados</tspan></text></g></g></g><g id="g-root-tx_crearage_qn6u8oq5wlxm-stroke" data-item-order="0" transform="translate(611.3125, 500)"></g></g></g><path id="whvx2g8mtngua" d="M65.283 12.757a.35.35 0 0 0 .584.157l5.203-5.141-6.183 3.523.396 1.461zm-2.216-11.7a.35.35 0 0 0-.522.305v3.111l3.276-1.868-2.754-1.548zm3.728 2.105l-4.25 2.421v2.445l6.391-3.644-2.141-1.222zm4.708 3.303a.35.35 0 0 0 0-.609l-1.592-.9-7.365 4.199v1.782a.35.35 0 0 0 .523.305l8.435-4.777z M44.542 2.513c0-.433.355-.783.792-.783s.792.35.792.783-.355.783-.792.783-.792-.35-.792-.783zm59.171 0c0-.433.355-.783.792-.783s.792.35.792.783-.355.783-.792.783-.792-.35-.792-.783zm-85.951 7.636h-1.27v-.487c-.276.201-.864.609-1.881.609-1.202 0-2.274-.794-2.137-2.078.118-1.106 1.153-1.584 1.848-1.727l2.17-.345c0-.539-.29-.956-1.064-1.006s-1.21.305-1.571 1.017l-1.124-.605c1.218-2.631 5.029-1.764 5.029.414v4.207zm-1.27-2.86c.006.396-.062 1.112-.819 1.59-.587.37-1.841.299-1.903-.395-.049-.555.461-.791.906-.898l1.816-.297zm72.662 2.86h-1.27v-.487c-.276.201-.864.609-1.881.609-1.202 0-2.274-.794-2.137-2.078.118-1.106 1.153-1.584 1.848-1.727l2.17-.345c0-.539-.29-.956-1.064-1.006s-1.21.305-1.571 1.017l-1.124-.605c1.218-2.631 5.029-1.764 5.029.414v4.207zm-1.27-2.86c.006.396-.062 1.112-.82 1.59-.587.37-1.841.299-1.903-.395-.049-.555.461-.791.906-.898l1.816-.297zM99.096 10.149H97.85v-8.45h1.246v4.895l2.68-2.559h1.738l-2.633 2.535 2.715 3.578h-1.556l-2.077-2.707-.867.844v1.863zm6.053-6.114h-1.255v6.113h1.255V4.035zm-59.2 0h-1.255v6.113h1.255V4.035zm5.584 6.113V1.697h1.255v2.695c.361-.346 1-.485 1.47-.485 1.452 0 2.477 1.082 2.457 2.448v3.792h-1.27v-3.68c0-.408-.214-1.339-1.315-1.339-.968 0-1.342.756-1.342 1.339v3.681h-1.255zm-4.76-4.894V4.039h.621a.45.45 0 0 0 .45-.45v-.855h1.251v1.305h1.309v1.215h-1.309v3.109c0 .293.105.664.648.664.365 0 .531-.035.736-.07v1.137s-.361.113-.857.113c-1.398 0-1.777-1.051-1.777-1.788V5.254h-1.071zM36.528 4.039h-1.394l2.191 6.106h1.125l1.234-3.918 1.238 3.918h1.129l2.188-6.106h-1.383l-1.359 3.93-1.256-3.93h-1.124l-1.242 3.957-1.348-3.957zM26.212 7.141c-.02 1.566 1.187 3.129 3.223 3.129 1.566 0 2.383-.918 2.734-1.719L31.172 8c-.315.399-.801 1.094-1.738 1.094-1.145 0-1.825-.781-1.891-1.52h4.625c.074-.284.148-.995-.03-1.559-.336-1.064-1.221-2.102-2.839-2.102s-3.088 1.152-3.088 3.227zm1.363-.75h3.348c-.055-.43-.566-1.301-1.623-1.301a1.79 1.79 0 0 0-1.725 1.301zm-8.758.75c.038 1.758 1.277 3.133 3.145 3.133 1.074 0 1.723-.477 1.961-.672v.547h1.242V1.703h-1.258v2.888c-.414-.36-1.062-.68-1.93-.68-1.91 0-3.198 1.473-3.16 3.23zm1.309-.08c0 1.119.723 1.978 1.836 1.978a1.88 1.88 0 0 0 1.94-1.904c0-1.371-1.011-1.99-1.972-1.99s-1.805.798-1.805 1.916zm76.683-.028C96.771 5.275 95.532 3.9 93.664 3.9c-1.074 0-1.723.477-1.961.672v-.547h-1.242v8.22h1.258V9.583c.414.36 1.063.68 1.93.68 1.91 0 3.198-1.473 3.16-3.23zm-1.309.08c0-1.119-.723-1.978-1.836-1.978a1.88 1.88 0 0 0-1.94 1.904c0 1.371 1.011 1.99 1.972 1.99S95.5 8.231 95.5 7.113zM106.441 10.173V4.036h1.254v.382c.361-.346 1-.485 1.47-.485 1.452 0 2.477 1.082 2.457 2.448v3.792h-1.27V6.492c0-.408-.214-1.339-1.315-1.339-.969 0-1.342.756-1.342 1.339v3.681h-1.254zm-30.383-.021V1.824h1.084l4.215 5.777V1.824h1.32v8.328h-1.094l-4.207-5.796v5.796h-1.319zM5.24 10.149H4V2.377h1.014l2.664 3.597 2.654-3.592h1.03v7.766h-1.256V4.762L7.678 8.068 5.24 4.742v5.407z" transform="translate(692.4375, 588.5)" fill="#ababab88" stroke="none"></path></svg>