<?xml version="1.0" encoding="utf-8" standalone="yes"?>
<!DOCTYPE svg PUBLIC "-//W3C//DTD SVG 1.1//EN" "http://www.w3.org/Graphics/SVG/1.1/DTD/svg11.dtd">
<svg style="fill:none;stroke:none;fill-rule:evenodd;clip-rule:evenodd;stroke-linecap:round;stroke-linejoin:round;stroke-miterlimit:1.5;" version="1.1" xmlns="http://www.w3.org/2000/svg" xmlns:xlink="http://www.w3.org/1999/xlink" width="1053" height="615" viewBox="0 0 1053 615"><style class="text-font-style fontImports" data-font-family="Roboto">@import url(https://fonts.googleapis.com/css2?family=Roboto:wght@400;700&amp;display=block);</style><g id="items" style="isolation: isolate"><g id="blend" style="mix-blend-mode: normal"><g id="g-root-cp_3_box-3_4hy4t4ndzax2-fill" data-item-order="-561224" transform="translate(519, 149)"><g id="cp_3_box-3_4hy4t4ndzax2-fill-merged" stroke="none" fill="#6b6b6b" fill-opacity="1"><g><path d="M220 337 V316 H235 V328L265 307L235 286 V298 H202 V337C202 351.912 189.912 364 175 364 H55C40.088 364 28 351.912 28 337 V55C28 40.088 40.088 28 55 28 H175C189.912 28 202 40.088 202 55 V176.134C186.473 180.13 175 194.225 175 211C175 230.882 191.118 247 211 247C230.882 247 247 230.882 247 211C247 194.225 235.527 180.13 220 176.134 V55C220 30.147 199.853 10 175 10 H55C30.147 10 10 30.147 10 55 V300.704L19 307L10 313.299 V337C10 361.853 30.147 382 55 382 H175C199.853 382 220 361.853 220 337"></path></g></g></g><g id="g-root-cp_3_box-3_4hy4t4ndzax2-stroke" data-item-order="-561224" transform="translate(519, 149)"><g id="cp_3_box-3_4hy4t4ndzax2-stroke" fill="none" stroke-linecap="round" stroke-linejoin="round" stroke-miterlimit="4" stroke="#d3d3d3" stroke-width="2" stroke-opacity="1"><g><path d="M 220 331L 220 316L 235 316L 235 328L 265 307L 235 286L 235 298L 202 298L 202 331M 28 331L 28 55C 28 40.0883 40.0883 28 55 28L 175 28C 189.9117 28 202 40.0883 202 55L 202 176.1342C 186.473 180.1305 175 194.2254 175 211C 175 230.8823 191.1177 247 211 247C 230.8823 247 247 230.8823 247 211C 247 194.2254 235.527 180.1305 220 176.1342L 220 55C 220 30.1472 199.8528 10 175 10L 55 10C 30.1472 10 10 30.1472 10 55L 10 300.7041L 19 307L 10 313.2993L 10 331M 28 337L 28 331M 202 337L 202 331M 220 337L 220 331M 10 337L 10 331M 28 337C 28 351.9117 40.0883 364 55 364L 175 364C 189.9117 364 202 351.9117 202 337M 220 337C 220 361.8528 199.8528 382 175 382L 55 382C 30.1472 382 10 361.8528 10 337"></path></g></g></g><g id="g-root-cp_0_g-0_1unf6jcndzbin-fill" data-item-order="-561203" transform="translate(564, 349.8590087890625)"></g><g id="g-root-cp_0_g-0_1unf6jcndzbin-stroke" data-item-order="-561203" transform="translate(564, 349.8590087890625)"><g id="cp_0_g-0_1unf6jcndzbin-stroke" fill="none" stroke-linecap="round" stroke-linejoin="round" stroke-miterlimit="4" stroke="#b7b7b7" stroke-width="2" stroke-opacity="1"><g><path d="M 35.6883 10L 42.1104 10.000001M 22.8443 10L 29.2663 10.000001M 10 10L 16.4221 10.000001M 48.5326 10L 54.9546 10.000001M 61.3766 10L 67.7987 10.000001M 74.2206 10L 80.6427 10.000001M 87.0649 10L 93.487 10.000001M 99.9089 10L 106.331 10.000001"></path></g></g></g><g id="g-root-cp_4_box-4_1q885i0ndz954-fill" data-item-order="-561194" transform="translate(765, 149)"><g id="cp_4_box-4_1q885i0ndz954-fill-merged" stroke="none" fill="#6b6b6b" fill-opacity="1"><g><path d="M220 337 V316 H235 V328L265 307L235 286 V298 H202 V337C202 351.912 189.912 364 175 364 H55C40.088 364 28 351.912 28 337 V55C28 40.088 40.088 28 55 28 H175C189.912 28 202 40.088 202 55 V176.134C186.473 180.13 175 194.225 175 211C175 230.882 191.118 247 211 247C230.882 247 247 230.882 247 211C247 194.225 235.527 180.13 220 176.134 V55C220 30.147 199.853 10 175 10 H55C30.147 10 10 30.147 10 55 V300.704L19 307L10 313.299 V337C10 361.853 30.147 382 55 382 H175C199.853 382 220 361.853 220 337"></path></g></g></g><g id="g-root-cp_4_box-4_1q885i0ndz954-stroke" data-item-order="-561194" transform="translate(765, 149)"><g id="cp_4_box-4_1q885i0ndz954-stroke" fill="none" stroke-linecap="round" stroke-linejoin="round" stroke-miterlimit="4" stroke="#d3d3d3" stroke-width="2" stroke-opacity="1"><g><path d="M 220 331L 220 316L 235 316L 235 328L 265 307L 235 286L 235 298L 202 298L 202 331M 28 331L 28 55C 28 40.0883 40.0883 28 55 28L 175 28C 189.9117 28 202 40.0883 202 55L 202 176.1342C 186.473 180.1305 175 194.2254 175 211C 175 230.8823 191.1177 247 211 247C 230.8823 247 247 230.8823 247 211C 247 194.2254 235.527 180.1305 220 176.1342L 220 55C 220 30.1472 199.8528 10 175 10L 55 10C 30.1472 10 10 30.1472 10 55L 10 300.7041L 19 307L 10 313.2993L 10 331M 28 337L 28 331M 202 337L 202 331M 220 337L 220 331M 10 337L 10 331M 28 337C 28 351.9117 40.0883 364 55 364L 175 364C 189.9117 364 202 351.9117 202 337M 220 337C 220 361.8528 199.8528 382 175 382L 55 382C 30.1472 382 10 361.8528 10 337"></path></g></g></g><g id="g-root-cp_0_g-0_1_1cwrn4ondzaq1-fill" data-item-order="-561173" transform="translate(810, 349.8590087890625)"></g><g id="g-root-cp_0_g-0_1_1cwrn4ondzaq1-stroke" data-item-order="-561173" transform="translate(810, 349.8590087890625)"><g id="cp_0_g-0_1_1cwrn4ondzaq1-stroke" fill="none" stroke-linecap="round" stroke-linejoin="round" stroke-miterlimit="4" stroke="#b7b7b7" stroke-width="2" stroke-opacity="1"><g><path d="M 35.6883 10L 42.1104 10.000001M 22.8443 10L 29.2663 10.000001M 10 10L 16.4221 10.000001M 48.5326 10L 54.9546 10.000001M 61.3766 10L 67.7987 10.000001M 74.2206 10L 80.6427 10.000001M 87.0649 10L 93.487 10.000001M 99.9089 10L 106.331 10.000001"></path></g></g></g><g id="g-root-cp_2_box-2_18gy508ndzbia-fill" data-item-order="-561164" transform="translate(273, 149)"><g id="cp_2_box-2_18gy508ndzbia-fill-merged" stroke="none" fill="#6b6b6b" fill-opacity="1"><g><path d="M220 361 V316 H235 V328L265 307L235 286 V298 H202 V361C202 375.912 189.912 388 175 388 H55C40.088 388 28 375.912 28 361 V55C28 40.088 40.088 28 55 28 H175C189.912 28 202 40.088 202 55 V176.134C186.473 180.13 175 194.225 175 211C175 230.882 191.118 247 211 247C230.882 247 247 230.882 247 211C247 194.225 235.527 180.13 220 176.134 V55C220 30.147 199.853 10 175 10 H55C30.147 10 10 30.147 10 55 V300.704L19 307L10 313.299 V361C10 385.853 30.147 406 55 406 H175C199.853 406 220 385.853 220 361"></path></g></g></g><g id="g-root-cp_2_box-2_18gy508ndzbia-stroke" data-item-order="-561164" transform="translate(273, 149)"><g id="cp_2_box-2_18gy508ndzbia-stroke" fill="none" stroke-linecap="round" stroke-linejoin="round" stroke-miterlimit="4" stroke="#d3d3d3" stroke-width="2" stroke-opacity="1"><g><path d="M 220 331L 220 316L 235 316L 235 328L 265 307L 235 286L 235 298L 202 298L 202 331M 28 331L 28 55C 28 40.0883 40.0883 28 55 28L 175 28C 189.9117 28 202 40.0883 202 55L 202 176.1342C 186.473 180.1305 175 194.2254 175 211C 175 230.8823 191.1177 247 211 247C 230.8823 247 247 230.8823 247 211C 247 194.2254 235.527 180.1305 220 176.1342L 220 55C 220 30.1472 199.8528 10 175 10L 55 10C 30.1472 10 10 30.1472 10 55L 10 300.7041L 19 307L 10 313.2993L 10 331M 28 361L 28 331M 202 361L 202 331M 220 361L 220 331M 10 361L 10 331M 28 361C 28 375.9117 40.0883 388 55 388L 175 388C 189.9117 388 202 375.9117 202 361M 220 361C 220 385.8528 199.8528 406 175 406L 55 406C 30.1472 406 10 385.8528 10 361"></path></g></g></g><g id="g-root-cp_0_g-0_2_zlxlugndz957-fill" data-item-order="-561143" transform="translate(318, 349.859375)"></g><g id="g-root-cp_0_g-0_2_zlxlugndz957-stroke" data-item-order="-561143" transform="translate(318, 349.859375)"><g id="cp_0_g-0_2_zlxlugndz957-stroke" fill="none" stroke-linecap="round" stroke-linejoin="round" stroke-miterlimit="4" stroke="#b7b7b7" stroke-width="2" stroke-opacity="1"><g><path d="M 35.6883 10L 42.1104 10.000001M 22.8443 10L 29.2663 10.000001M 10 10L 16.4221 10.000001M 48.5326 10L 54.9546 10.000001M 61.3766 10L 67.7987 10.000001M 74.2206 10L 80.6427 10.000001M 87.0649 10L 93.487 10.000001M 99.9089 10L 106.331 10.000001"></path></g></g></g><g id="g-root-cp_1_box-1_mah3h4ndzaq4-fill" data-item-order="-561134" transform="translate(27, 149)"><g id="cp_1_box-1_mah3h4ndzaq4-fill-merged" stroke="none" fill="#5a48a4" fill-opacity="1"><g><path d="M220 337 V316 H235 V328L265 307L235 286 V298 H202 V337C202 351.912 189.912 364 175 364 H55C40.088 364 28 351.912 28 337 V55C28 40.088 40.088 28 55 28 H175C189.912 28 202 40.088 202 55 V176.134C186.473 180.13 175 194.225 175 211C175 230.882 191.118 247 211 247C230.882 247 247 230.882 247 211C247 194.225 235.527 180.13 220 176.134 V55C220 30.147 199.853 10 175 10 H55C30.147 10 10 30.147 10 55 V337C10 361.853 30.147 382 55 382 H175C199.853 382 220 361.853 220 337"></path></g></g></g><g id="g-root-cp_1_box-1_mah3h4ndzaq4-stroke" data-item-order="-561134" transform="translate(27, 149)"><g id="cp_1_box-1_mah3h4ndzaq4-stroke" fill="none" stroke-linecap="round" stroke-linejoin="round" stroke-miterlimit="4" stroke="#b09cff" stroke-width="2" stroke-opacity="1"><g><path d="M 220 331L 220 316L 235 316L 235 328L 265 307L 235 286L 235 298L 202 298L 202 331M 28 331L 28 55C 28 40.0883 40.0883 28 55 28L 175 28C 189.9117 28 202 40.0883 202 55L 202 176.1342C 186.473 180.1305 175 194.2254 175 211C 175 230.8823 191.1177 247 211 247C 230.8823 247 247 230.8823 247 211C 247 194.2254 235.527 180.1305 220 176.1342L 220 55C 220 30.1472 199.8528 10 175 10L 55 10C 30.1472 10 10 30.1472 10 55L 10 331M 28 337L 28 331M 202 337L 202 331M 220 337L 220 331M 10 337L 10 331M 28 337C 28 351.9117 40.0883 364 55 364L 175 364C 189.9117 364 202 351.9117 202 337M 220 337C 220 361.8528 199.8528 382 175 382L 55 382C 30.1472 382 10 361.8528 10 337"></path></g></g></g><g id="g-root-cp_0_g-0_3_8zn26wndz959-fill" data-item-order="-561113" transform="translate(72, 349.859375)"></g><g id="g-root-cp_0_g-0_3_8zn26wndz959-stroke" data-item-order="-561113" transform="translate(72, 349.859375)"><g id="cp_0_g-0_3_8zn26wndz959-stroke" fill="none" stroke-linecap="round" stroke-linejoin="round" stroke-miterlimit="4" stroke="#b7b7b7" stroke-width="2" stroke-opacity="1"><g><path d="M 35.6883 10L 42.1104 10.000001M 22.8443 10L 29.2663 10.000001M 10 10L 16.4221 10.000001M 48.5326 10L 54.9546 10.000001M 61.3766 10L 67.7987 10.000001M 74.2206 10L 80.6427 10.000001M 87.0649 10L 93.487 10.000001M 99.9089 10L 106.331 10.000001"></path></g></g></g><g id="g-root-tx_procesod_4jtk2gndz9xi-fill" data-item-order="0" transform="translate(248.1953125, 38)"><g id="tx_procesod_4jtk2gndz9xi-fill-merged" stroke="none" fill="#333333" fill-opacity="1"><g><text style="font: bold 25px Roboto, sans-serif; white-space: pre;" transform="translate(278.3046875, 25)" font-weight="bold" font-size="25px" font-family="Roboto, sans-serif"><tspan x="-266.3" y="15" dominant-baseline="ideographic">Proceso de Automatización de Procesos con IA</tspan></text></g></g></g><g id="g-root-tx_procesod_4jtk2gndz9xi-stroke" data-item-order="0" transform="translate(248.1953125, 38)"></g><g id="g-root-ic_mana_18mkhy0ndmmfg-fill" data-item-order="0" transform="translate(84, 206)"></g><g id="g-root-ic_mana_18mkhy0ndmmfg-stroke" data-item-order="0" transform="translate(84, 206)"><g id="ic_mana_18mkhy0ndmmfg-stroke" fill="none" stroke-linecap="round" stroke-linejoin="round" stroke-miterlimit="4" stroke="#7f64e9" stroke-width="2" stroke-opacity="1"><g><path d="M 14 58L 22 58M 38 58L 58 58M 74 58L 102 58M 93.907997 50L 102 58L 93.907997 66M 22 58C 22 62.418278 25.581722 66 30 66C 34.418278 66 38 62.418278 38 58C 38 53.581722 34.418278 50 30 50C 25.581722 50 22 53.581722 22 58M 58 58C 58 62.418278 61.581722 66 66 66C 70.418274 66 74 62.418278 74 58C 74 53.581722 70.418274 50 66 50C 61.581722 50 58 53.581722 58 58M 66 50L 66 36M 30 80L 30 66M 54 12L 78 12C 78 12 82 12 82 16L 82 32C 82 32 82 36 78 36L 54 36C 54 36 50 36 50 32L 50 16C 50 16 50 12 54 12M 18 80L 42 80C 42 80 46 80 46 84L 46 100C 46 100 46 104 42 104L 18 104C 18 104 14 104 14 100L 14 84C 14 84 14 80 18 80"></path></g></g></g><g id="g-root-ic_3_8ye76gndl91d-fill" data-item-order="0" transform="translate(330, 206)"></g><g id="g-root-ic_3_8ye76gndl91d-stroke" data-item-order="0" transform="translate(330, 206)"><g id="ic_3_8ye76gndl91d-stroke" fill="none" stroke-linecap="round" stroke-linejoin="round" stroke-miterlimit="4" stroke="#d3d3d3" stroke-width="2" stroke-opacity="1"><g><path d="M 32.211998 34.063999C 27.513945 33.401176 22.782616 33.000557 18.040001 32.863998C 15.103163 32.487022 12.409853 34.543571 12 37.475998L 12 86.244003C 12.418016 89.038948 14.931435 91.031143 17.747999 90.799995C 53.759998 92 58 103.940002 58 103.940002M 84.059998 34.024002C 88.668655 33.381615 93.308846 32.990368 97.959999 32.851997C 100.900917 32.47541 103.596062 34.538715 104 37.475998L 104 86.244003C 103.581985 89.038948 101.068565 91.031143 98.251999 90.799995C 62.240002 92 58 103.940002 58 103.940002M 58 103.199997L 58 80.171997M 79.748001 68.059998C 79.748001 70.269135 77.957138 72.059998 75.748001 72.059998L 39.748001 72.059998C 37.53886 72.059998 35.748001 70.269135 35.748001 68.059998L 35.748001 54.060001C 35.748001 41.909737 45.597736 32.060001 57.748001 32.060001C 69.89827 32.060001 79.748001 41.909737 79.748001 54.060001ZM 35.748001 60.060001L 79.748001 60.060001M 47.748001 49.060001C 47.748001 49.612286 48.195717 50.060001 48.748001 50.060001C 49.300285 50.060001 49.748001 49.612286 49.748001 49.060001C 49.748001 48.507717 49.300285 48.060001 48.748001 48.060001C 48.195717 48.060001 47.748001 48.507717 47.748001 49.060001M 65.748001 49.060001C 65.748001 49.612286 66.195717 50.060001 66.748001 50.060001C 67.300285 50.060001 67.748001 49.612286 67.748001 49.060001C 67.748001 48.507717 67.300285 48.060001 66.748001 48.060001C 66.195717 48.060001 65.748001 48.507717 65.748001 49.060001M 57.748001 32.059998L 57.748001 24.060001M 51.748001 18.060001C 51.748001 21.373709 54.434292 24.060001 57.748001 24.060001C 61.06171 24.060001 63.748001 21.373709 63.748001 18.060001C 63.748001 14.746292 61.06171 12.06 57.748001 12.06C 54.434292 12.06 51.748001 14.746292 51.748001 18.060001"></path></g></g></g><g id="g-root-ic_1_v7zizcndz8xt-fill" data-item-order="0" transform="translate(576, 206)"></g><g id="g-root-ic_1_v7zizcndz8xt-stroke" data-item-order="0" transform="translate(576, 206)"><g id="ic_1_v7zizcndz8xt-stroke" fill="none" stroke-linecap="round" stroke-linejoin="round" stroke-miterlimit="4" stroke="#d3d3d3" stroke-width="2" stroke-opacity="1"><g><path d="M 75.247986 78.123985C 75.247986 81.300728 77.823242 83.875984 80.999985 83.875984C 84.176727 83.875984 86.751984 81.300728 86.751984 78.123985C 86.751984 74.947243 84.176727 72.371994 80.999985 72.371994C 77.823242 72.371994 75.247986 74.947243 75.247986 78.123985ZM 85.883987 55.879993L 87.579987 61.447994C 88.156906 63.368774 90.125969 64.511711 92.079987 64.05999L 97.723984 62.751991C 99.919731 62.257072 102.181725 63.250683 103.302704 65.202522C 104.423676 67.154358 104.141991 69.608849 102.607986 71.255989L 98.655983 75.511986C 97.303818 76.981613 97.303818 79.242348 98.655983 80.711983L 102.603981 84.971985C 104.137993 86.619125 104.419678 89.073616 103.298698 91.025459C 102.177727 92.977295 99.915733 93.970909 97.719986 93.475983L 92.075981 92.167984C 90.124077 91.732292 88.168129 92.882439 87.599983 94.799988L 85.903984 100.367981C 85.255814 102.523674 83.271011 103.999466 81.019981 103.999466C 78.768959 103.999466 76.784157 102.523674 76.135986 100.367981L 74.419983 94.799988C 73.843079 92.879204 71.874016 91.736267 69.919991 92.187988L 64.275993 93.495987C 62.080246 93.990906 59.818253 92.997299 58.697277 91.045456C 57.576302 89.09362 57.857986 86.63913 59.391994 84.991982L 63.339989 80.731987C 64.692146 79.262352 64.692146 77.00161 63.339985 75.531982L 59.391991 71.271988C 57.857986 69.624847 57.576302 67.170357 58.697277 65.218521C 59.818253 63.266682 62.080246 62.273071 64.275993 62.767994L 69.919991 64.075989C 71.873695 64.525612 73.841408 63.383457 74.419983 61.463993L 76.115982 55.895992C 76.76062 53.739235 78.743004 52.260181 80.994034 52.256493C 83.245071 52.252804 85.232292 53.725357 85.883987 55.879993ZM 31.999996 91.999985L 43.999992 91.999985M 44.003994 71.999992L 44.003994 91.999985M 22.999998 89.999985C 22.447712 89.999985 21.999998 90.447701 21.999998 90.999985C 21.999998 91.552269 22.447712 91.999985 22.999998 91.999985C 23.552282 91.999985 23.999998 91.552269 23.999998 90.999985C 23.999998 90.447701 23.552282 89.999985 22.999998 89.999985L 22.999998 89.999985M 12.999999 89.999985C 12.447715 89.999985 12 90.447701 12 90.999985C 12 91.552269 12.447715 91.999985 12.999999 91.999985C 13.552284 91.999985 13.999999 91.552269 13.999999 90.999985C 13.999999 90.447701 13.552284 89.999985 12.999999 89.999985L 12.999999 89.999985M 26.999996 60.999992C 26.447712 60.999992 25.999996 61.447708 25.999996 61.999992C 25.999996 62.552277 26.447712 62.999992 26.999996 62.999992C 27.55228 62.999992 27.999996 62.552277 27.999996 61.999992C 27.999996 61.447708 27.55228 60.999992 26.999996 60.999992L 26.999996 60.999992M 36.999996 60.999992C 36.447712 60.999992 35.999996 61.447708 35.999996 61.999992C 35.999996 62.552277 36.447712 62.999992 36.999996 62.999992C 37.55228 62.999992 37.999996 62.552277 37.999996 61.999992C 37.999996 61.447708 37.55228 60.999992 36.999996 60.999992L 36.999996 60.999992M 59.999992 51.999992L 21.999998 51.999992C 16.477152 51.999992 12 56.477146 12 61.999992C 12 67.522842 16.477152 71.999992 21.999998 71.999992L 47.999992 71.999992M 26.999996 40.999996C 26.447712 40.999996 25.999996 41.447712 25.999996 41.999992C 25.999996 42.552277 26.447712 42.999992 26.999996 42.999992C 27.55228 42.999992 27.999996 42.552277 27.999996 41.999992C 27.999996 41.447712 27.55228 40.999996 26.999996 40.999996L 26.999996 40.999996M 36.999996 40.999996C 36.447712 40.999996 35.999996 41.447712 35.999996 41.999992C 35.999996 42.552277 36.447712 42.999992 36.999996 42.999992C 37.55228 42.999992 37.999996 42.552277 37.999996 41.999992C 37.999996 41.447712 37.55228 40.999996 36.999996 40.999996L 36.999996 40.999996M 79.999985 41.999992C 79.999985 36.47715 75.522835 31.999996 69.999992 31.999996L 21.999998 31.999996C 16.477152 31.999996 12 36.47715 12 41.999992C 12 47.522839 16.477152 51.999992 21.999998 51.999992L 59.999992 51.999992M 26.999996 20.999998C 26.447712 20.999998 25.999996 21.447712 25.999996 21.999998C 25.999996 22.552282 26.447712 22.999998 26.999996 22.999998C 27.55228 22.999998 27.999996 22.552282 27.999996 21.999998C 27.999996 21.447712 27.55228 20.999998 26.999996 20.999998L 26.999996 20.999998M 36.999996 20.999998C 36.447712 20.999998 35.999996 21.447712 35.999996 21.999998C 35.999996 22.552282 36.447712 22.999998 36.999996 22.999998C 37.55228 22.999998 37.999996 22.552282 37.999996 21.999998C 37.999996 21.447712 37.55228 20.999998 36.999996 20.999998L 36.999996 20.999998M 79.999985 21.999998C 79.999985 16.477152 75.522835 12 69.999992 12L 21.999998 12C 16.477152 12 12 16.477152 12 21.999998C 12 27.522844 16.477152 31.999996 21.999998 31.999996L 69.999992 31.999996C 75.522835 31.999996 79.999985 27.522844 79.999985 21.999998Z"></path></g></g></g><g id="g-root-ic_line_1czw0k8ne4v0m-fill" data-item-order="0" transform="translate(822, 206)"></g><g id="g-root-ic_line_1czw0k8ne4v0m-stroke" data-item-order="0" transform="translate(822, 206)"><g id="ic_line_1czw0k8ne4v0m-stroke" fill="none" stroke-linecap="round" stroke-linejoin="round" stroke-miterlimit="4" stroke="#d3d3d3" stroke-width="2" stroke-opacity="1"><g><path d="M 29.715996 57.891991C 29.715998 73.355965 42.252022 85.891991 57.715996 85.891991C 73.179962 85.891991 85.715988 73.355965 85.715988 57.891994C 85.715988 42.42802 73.179962 29.891998 57.715996 29.891998C 42.252022 29.891998 29.715998 42.42802 29.715998 57.891994ZM 37.715996 65.891991L 40.607994 61.555992C 41.220211 60.637417 42.460892 60.388565 43.379993 60.999992L 46.219994 62.891991C 47.074841 63.456497 48.218029 63.283813 48.867992 62.491993L 56.311993 53.551991C 56.672009 53.120125 57.197182 52.859745 57.758865 52.834629C 58.320553 52.809513 58.866867 53.021984 59.263992 53.419991L 64.167992 58.323994C 64.565544 58.720181 65.111275 58.931091 65.671944 58.905228C 66.232605 58.879364 66.756607 58.619102 67.11599 58.187992L 75.715988 47.871994M 102.247986 64.219994C 103.254738 64.094215 104.007813 63.234543 103.999985 62.219994L 103.999985 53.763992C 104.007813 52.749443 103.254738 51.889771 102.247986 51.763992L 93.243988 50.639992C 92.326172 46.23 90.582161 42.033508 88.103981 38.271996L 93.683983 31.091995C 94.302116 30.296316 94.231842 29.165056 93.519981 28.451996L 87.519981 22.451998C 86.806923 21.740139 85.675667 21.669865 84.879982 22.287998L 77.699982 27.887997C 73.93782 25.4102 69.741661 23.66497 65.331985 22.743998L 64.219994 13.752C 64.094215 12.745247 63.234543 11.992173 62.219994 12L 53.763992 12C 52.749443 11.992173 51.889771 12.745247 51.763992 13.752L 50.639992 22.751997C 46.235886 23.674883 42.045322 25.420046 38.287994 27.895996L 31.107996 22.315998C 30.312317 21.697865 29.181055 21.768139 28.467997 22.479998L 22.467999 28.479996C 21.75614 29.193056 21.685865 30.324316 22.303997 31.119997L 27.903996 38.319996C 25.425817 42.081509 23.681805 46.278 22.763996 50.687992L 13.759999 51.811993C 12.753247 51.937771 12.000174 52.797443 12.007999 53.811993L 12.007999 62.283993C 12.000174 63.298542 12.753247 64.158211 13.759999 64.283989L 22.763998 65.40799C 23.681805 69.817978 25.425817 74.014465 27.903996 77.775978L 22.315998 84.891983C 21.697865 85.687668 21.768139 86.818924 22.479998 87.531982L 28.479996 93.531982C 29.193056 94.243843 30.324316 94.314117 31.119997 93.695984L 38.319996 88.115982C 42.082165 90.593781 46.278316 92.339012 50.687992 93.259979L 51.811993 102.259987C 51.937771 103.266739 52.797443 104.019814 53.811993 104.011986L 62.283993 104.011986C 63.298542 104.019814 64.158211 103.266739 64.283989 102.259987L 65.40799 93.259987C 69.817665 92.339012 74.013809 90.593781 77.775986 88.115982L 84.955986 93.695984C 85.751663 94.314117 86.882927 94.243843 87.595985 93.531982L 93.595985 87.531982C 94.307846 86.818924 94.37812 85.687668 93.759987 84.891983L 88.179985 77.711983C 90.658157 73.95047 92.402176 69.753983 93.319984 65.343987Z"></path></g></g></g><g id="g-root-tx_1_1ut1jh4ndmn7n-fill" data-item-order="0" transform="translate(217.390625, 332)"><g id="tx_1_1ut1jh4ndmn7n-fill-merged" stroke="none" fill="#b09cff" fill-opacity="1"><g><text style="font: bold 30px Roboto, sans-serif; white-space: pre;" transform="translate(20.609375, 28)" font-weight="bold" font-size="30px" font-family="Roboto, sans-serif"><tspan x="-8.61" y="18" dominant-baseline="ideographic">1</tspan></text></g></g></g><g id="g-root-tx_1_1ut1jh4ndmn7n-stroke" data-item-order="0" transform="translate(217.390625, 332)"></g><g id="g-root-tx_2_zkoqu0ndl91c-fill" data-item-order="0" transform="translate(463.390625, 332)"><g id="tx_2_zkoqu0ndl91c-fill-merged" stroke="none" fill="#d3d3d3" fill-opacity="1"><g><text style="font: bold 30px Roboto, sans-serif; white-space: pre;" transform="translate(20.609375, 28)" font-weight="bold" font-size="30px" font-family="Roboto, sans-serif"><tspan x="-8.61" y="18" dominant-baseline="ideographic">2</tspan></text></g></g></g><g id="g-root-tx_2_zkoqu0ndl91c-stroke" data-item-order="0" transform="translate(463.390625, 332)"></g><g id="g-root-tx_3_18itk9kndzaio-fill" data-item-order="0" transform="translate(709.390625, 332)"><g id="tx_3_18itk9kndzaio-fill-merged" stroke="none" fill="#d3d3d3" fill-opacity="1"><g><text style="font: bold 30px Roboto, sans-serif; white-space: pre;" transform="translate(20.609375, 28)" font-weight="bold" font-size="30px" font-family="Roboto, sans-serif"><tspan x="-8.61" y="18" dominant-baseline="ideographic">3</tspan></text></g></g></g><g id="g-root-tx_3_18itk9kndzaio-stroke" data-item-order="0" transform="translate(709.390625, 332)"></g><g id="g-root-tx_4_1qaq1ugne4wlh-fill" data-item-order="0" transform="translate(955.390625, 332)"><g id="tx_4_1qaq1ugne4wlh-fill-merged" stroke="none" fill="#d3d3d3" fill-opacity="1"><g><text style="font: bold 30px Roboto, sans-serif; white-space: pre;" transform="translate(20.609375, 28)" font-weight="bold" font-size="30px" font-family="Roboto, sans-serif"><tspan x="-8.61" y="18" dominant-baseline="ideographic">4</tspan></text></g></g></g><g id="g-root-tx_4_1qaq1ugne4wlh-stroke" data-item-order="0" transform="translate(955.390625, 332)"></g><g id="g-root-tx_mapeodep_dil0wondmo7e-fill" data-item-order="0" transform="translate(64.2421875, 404)"><g id="tx_mapeodep_dil0wondmo7e-fill-merged" stroke="none" fill="#8769fd" fill-opacity="1"><g><text style="font: 20px Roboto, sans-serif; white-space: pre;" transform="translate(77.7578125, 46)" font-size="20px" font-family="Roboto, sans-serif"><tspan x="-44.21" y="-12" dominant-baseline="ideographic">Mapeo de </tspan><tspan x="-49.07" y="12" dominant-baseline="ideographic">Procesos y </tspan><tspan x="-65.76" y="36" dominant-baseline="ideographic">Oportunidades</tspan></text></g></g></g><g id="g-root-tx_mapeodep_dil0wondmo7e-stroke" data-item-order="0" transform="translate(64.2421875, 404)"></g><g id="g-root-tx_implemen_1q9h3o8ndzbbb-fill" data-item-order="0" transform="translate(548.4765625, 404)"><g id="tx_implemen_1q9h3o8ndzbbb-fill-merged" stroke="none" fill="#333333" fill-opacity="1"><g><text style="font: 20px Roboto, sans-serif; white-space: pre;" transform="translate(85.5234375, 34)" font-size="20px" font-family="Roboto, sans-serif"><tspan x="-73.52" y="0" dominant-baseline="ideographic">Implementación </tspan><tspan x="-50.35" y="24" dominant-baseline="ideographic">y Conexión</tspan></text></g></g></g><g id="g-root-tx_implemen_1q9h3o8ndzbbb-stroke" data-item-order="0" transform="translate(548.4765625, 404)"></g><g id="g-root-tx_diseodea_1lr5sd4ndl91r-fill" data-item-order="0" transform="translate(314.2890625, 404)"><g id="tx_diseodea_1lr5sd4ndl91r-fill-merged" stroke="none" fill="#333333" fill-opacity="1"><g><text style="font: 20px Roboto, sans-serif; white-space: pre;" transform="translate(73.7109375, 58)" font-size="20px" font-family="Roboto, sans-serif"><tspan x="-45.4" y="-24" dominant-baseline="ideographic">Diseño de </tspan><tspan x="-45.77" y="0" dominant-baseline="ideographic">Agentes e </tspan><tspan x="-61.71" y="24" dominant-baseline="ideographic">Integraciones </tspan><tspan x="-22.85" y="48" dominant-baseline="ideographic">MCP</tspan></text></g></g></g><g id="g-root-tx_diseodea_1lr5sd4ndl91r-stroke" data-item-order="0" transform="translate(314.2890625, 404)"></g><g id="g-root-tx_optimiza_hvwjiwne4wsk-fill" data-item-order="0" transform="translate(807.1015625, 404)"><g id="tx_optimiza_hvwjiwne4wsk-fill-merged" stroke="none" fill="#333333" fill-opacity="1"><g><text style="font: 20px Roboto, sans-serif; white-space: pre;" transform="translate(72.8984375, 46)" font-size="20px" font-family="Roboto, sans-serif"><tspan x="-59.3" y="-12" dominant-baseline="ideographic">Optimización </tspan><tspan x="-5.34" y="12" dominant-baseline="ideographic">y </tspan><tspan x="-60.9" y="36" dominant-baseline="ideographic">Escalamiento</tspan></text></g></g></g><g id="g-root-tx_optimiza_hvwjiwne4wsk-stroke" data-item-order="0" transform="translate(807.1015625, 404)"></g></g></g><path id="wznslaworxamk" d="M65.283 12.757a.35.35 0 0 0 .584.157l5.203-5.141-6.183 3.523.396 1.461zm-2.216-11.7a.35.35 0 0 0-.522.305v3.111l3.276-1.868-2.754-1.548zm3.728 2.105l-4.25 2.421v2.445l6.391-3.644-2.141-1.222zm4.708 3.303a.35.35 0 0 0 0-.609l-1.592-.9-7.365 4.199v1.782a.35.35 0 0 0 .523.305l8.435-4.777z M44.542 2.513c0-.433.355-.783.792-.783s.792.35.792.783-.355.783-.792.783-.792-.35-.792-.783zm59.171 0c0-.433.355-.783.792-.783s.792.35.792.783-.355.783-.792.783-.792-.35-.792-.783zm-85.951 7.636h-1.27v-.487c-.276.201-.864.609-1.881.609-1.202 0-2.274-.794-2.137-2.078.118-1.106 1.153-1.584 1.848-1.727l2.17-.345c0-.539-.29-.956-1.064-1.006s-1.21.305-1.571 1.017l-1.124-.605c1.218-2.631 5.029-1.764 5.029.414v4.207zm-1.27-2.86c.006.396-.062 1.112-.819 1.59-.587.37-1.841.299-1.903-.395-.049-.555.461-.791.906-.898l1.816-.297zm72.662 2.86h-1.27v-.487c-.276.201-.864.609-1.881.609-1.202 0-2.274-.794-2.137-2.078.118-1.106 1.153-1.584 1.848-1.727l2.17-.345c0-.539-.29-.956-1.064-1.006s-1.21.305-1.571 1.017l-1.124-.605c1.218-2.631 5.029-1.764 5.029.414v4.207zm-1.27-2.86c.006.396-.062 1.112-.82 1.59-.587.37-1.841.299-1.903-.395-.049-.555.461-.791.906-.898l1.816-.297zM99.096 10.149H97.85v-8.45h1.246v4.895l2.68-2.559h1.738l-2.633 2.535 2.715 3.578h-1.556l-2.077-2.707-.867.844v1.863zm6.053-6.114h-1.255v6.113h1.255V4.035zm-59.2 0h-1.255v6.113h1.255V4.035zm5.584 6.113V1.697h1.255v2.695c.361-.346 1-.485 1.47-.485 1.452 0 2.477 1.082 2.457 2.448v3.792h-1.27v-3.68c0-.408-.214-1.339-1.315-1.339-.968 0-1.342.756-1.342 1.339v3.681h-1.255zm-4.76-4.894V4.039h.621a.45.45 0 0 0 .45-.45v-.855h1.251v1.305h1.309v1.215h-1.309v3.109c0 .293.105.664.648.664.365 0 .531-.035.736-.07v1.137s-.361.113-.857.113c-1.398 0-1.777-1.051-1.777-1.788V5.254h-1.071zM36.528 4.039h-1.394l2.191 6.106h1.125l1.234-3.918 1.238 3.918h1.129l2.188-6.106h-1.383l-1.359 3.93-1.256-3.93h-1.124l-1.242 3.957-1.348-3.957zM26.212 7.141c-.02 1.566 1.187 3.129 3.223 3.129 1.566 0 2.383-.918 2.734-1.719L31.172 8c-.315.399-.801 1.094-1.738 1.094-1.145 0-1.825-.781-1.891-1.52h4.625c.074-.284.148-.995-.03-1.559-.336-1.064-1.221-2.102-2.839-2.102s-3.088 1.152-3.088 3.227zm1.363-.75h3.348c-.055-.43-.566-1.301-1.623-1.301a1.79 1.79 0 0 0-1.725 1.301zm-8.758.75c.038 1.758 1.277 3.133 3.145 3.133 1.074 0 1.723-.477 1.961-.672v.547h1.242V1.703h-1.258v2.888c-.414-.36-1.062-.68-1.93-.68-1.91 0-3.198 1.473-3.16 3.23zm1.309-.08c0 1.119.723 1.978 1.836 1.978a1.88 1.88 0 0 0 1.94-1.904c0-1.371-1.011-1.99-1.972-1.99s-1.805.798-1.805 1.916zm76.683-.028C96.771 5.275 95.532 3.9 93.664 3.9c-1.074 0-1.723.477-1.961.672v-.547h-1.242v8.22h1.258V9.583c.414.36 1.063.68 1.93.68 1.91 0 3.198-1.473 3.16-3.23zm-1.309.08c0-1.119-.723-1.978-1.836-1.978a1.88 1.88 0 0 0-1.94 1.904c0 1.371 1.011 1.99 1.972 1.99S95.5 8.231 95.5 7.113zM106.441 10.173V4.036h1.254v.382c.361-.346 1-.485 1.47-.485 1.452 0 2.477 1.082 2.457 2.448v3.792h-1.27V6.492c0-.408-.214-1.339-1.315-1.339-.969 0-1.342.756-1.342 1.339v3.681h-1.254zm-30.383-.021V1.824h1.084l4.215 5.777V1.824h1.32v8.328h-1.094l-4.207-5.796v5.796h-1.319zM5.24 10.149H4V2.377h1.014l2.664 3.597 2.654-3.592h1.03v7.766h-1.256V4.762L7.678 8.068 5.24 4.742v5.407z" transform="translate(917, 581)" fill="#ababab88" stroke="none"></path></svg>